<?xml version="1.0" encoding="UTF-8"?>
<svg width="20px" height="20px" viewBox="0 0 20 20" version="1.1" xmlns="http://www.w3.org/2000/svg" xmlns:xlink="http://www.w3.org/1999/xlink">
    <!-- Generator: sketchtool 41.2 (35397) - http://www.bohemiancoding.com/sketch -->
    <title>E597DB22-5EA5-4437-8499-E96A8B82B972</title>
    <desc>Created with sketchtool.</desc>
    <defs></defs>
    <g id="Symbols" stroke="none" stroke-width="1" fill="none" fill-rule="evenodd">
        <g id="Icons-/-Business">
            <rect id="Rectangle-8" fill-opacity="0" fill="#FFFFFF" x="0" y="0" width="20" height="20"></rect>
            <path d="M14.4322917,12.3333333 L14.4322917,13.9010417 L12.8645833,13.9010417 L12.8645833,12.3333333 L14.4322917,12.3333333 Z M14.4322917,9.234375 L14.4322917,10.765625 L12.8645833,10.765625 L12.8645833,9.234375 L14.4322917,9.234375 Z M16,15.4322917 L16,7.66666667 L9.765625,7.66666667 L9.765625,9.234375 L11.3333333,9.234375 L11.3333333,10.765625 L9.765625,10.765625 L9.765625,12.3333333 L11.3333333,12.3333333 L11.3333333,13.9010417 L9.765625,13.9010417 L9.765625,15.4322917 L16,15.4322917 Z M8.19791667,6.09895833 L8.19791667,4.56770833 L6.66666667,4.56770833 L6.66666667,6.09895833 L8.19791667,6.09895833 Z M8.19791667,9.234375 L8.19791667,7.66666667 L6.66666667,7.66666667 L6.66666667,9.234375 L8.19791667,9.234375 Z M8.19791667,12.3333333 L8.19791667,10.765625 L6.66666667,10.765625 L6.66666667,12.3333333 L8.19791667,12.3333333 Z M8.19791667,15.4322917 L8.19791667,13.9010417 L6.66666667,13.9010417 L6.66666667,15.4322917 L8.19791667,15.4322917 Z M5.09895833,6.09895833 L5.09895833,4.56770833 L3.53125,4.56770833 L3.53125,6.09895833 L5.09895833,6.09895833 Z M5.09895833,9.234375 L5.09895833,7.66666667 L3.53125,7.66666667 L3.53125,9.234375 L5.09895833,9.234375 Z M5.09895833,12.3333333 L5.09895833,10.765625 L3.53125,10.765625 L3.53125,12.3333333 L5.09895833,12.3333333 Z M5.09895833,15.4322917 L5.09895833,13.9010417 L3.53125,13.9010417 L3.53125,15.4322917 L5.09895833,15.4322917 Z M9.765625,6.09895833 L17.53125,6.09895833 L17.53125,17 L2,17 L2,3 L9.765625,3 L9.765625,6.09895833 Z" id="business" fill="#B4BDC6"></path>
        </g>
    </g>
</svg>