<?xml version="1.0" encoding="UTF-8"?>
<svg width="20px" height="20px" viewBox="2 0 20 20" version="1.1" xmlns="http://www.w3.org/2000/svg" xmlns:xlink="http://www.w3.org/1999/xlink">
    <!-- Generator: sketchtool 41.2 (35397) - http://www.bohemiancoding.com/sketch -->
    <title>37F0077C-8575-4432-97DC-6FDED8185870</title>
    <desc>Created with sketchtool.</desc>
    <defs></defs>
    <g id="Symbols" stroke="none" stroke-width="1" fill="none" fill-rule="evenodd">
        <g id="Icons-/-Date" transform="scale(1.05) translate(1,-1)">
            <rect id="Rectangle-8" fill-opacity="0" fill="#FFFFFF" x="0" y="0" width="20" height="20"></rect>
            <path d="M15.1803279,15.5901639 L15.1803279,7.91803279 L5.40983607,7.91803279 L5.40983607,15.5901639 L15.1803279,15.5901639 Z M13.0819672,3 L14.4918033,3 L14.4918033,4.40983607 L15.1803279,4.40983607 C15.5519144,4.40983607 15.87978,4.55191115 16.1639344,4.83606557 C16.4480889,5.12022 16.5901639,5.44808557 16.5901639,5.81967213 L16.5901639,15.5901639 C16.5901639,15.9617505 16.4480889,16.2896161 16.1639344,16.5737705 C15.87978,16.8579249 15.5519144,17 15.1803279,17 L5.40983607,17 C5.01639148,17 4.68306148,16.8579249 4.40983607,16.5737705 C4.13661066,16.2896161 4,15.9617505 4,15.5901639 L4,5.81967213 C4,5.44808557 4.13661066,5.12022 4.40983607,4.83606557 C4.68306148,4.55191115 5.01639148,4.40983607 5.40983607,4.40983607 L6.09836066,4.40983607 L6.09836066,3 L7.50819672,3 L7.50819672,4.40983607 L13.0819672,4.40983607 L13.0819672,3 Z M13.8032787,10.704918 L13.8032787,14.2131148 L10.295082,14.2131148 L10.295082,10.704918 L13.8032787,10.704918 Z" id="date" fill="#B4BDC6"></path>
        </g>
    </g>
</svg>