<?xml version="1.0" encoding="UTF-8"?>
<svg width="313px" height="59px" viewBox="0 0 313 59" version="1.1" xmlns="http://www.w3.org/2000/svg" xmlns:xlink="http://www.w3.org/1999/xlink">
    <!-- Generator: Sketch 41.2 (35397) - http://www.bohemiancoding.com/sketch -->
    <title>MDI_Logo</title>
    <desc>Created with Sketch.</desc>
    <defs></defs>
    <g id="Symbols" stroke="none" stroke-width="1" fill="none" fill-rule="evenodd">
        <g id="header" transform="translate(-40.000000, -20.000000)">
            <g id="MDI_Logo" transform="translate(40.000000, 20.000000)">
                <path d="M9.13384615,7.57030769 C11.8507692,7.57030769 14.5553846,7.69953846 17.2353846,8.14723077 C31.4692308,10.5226154 42.32,22.8995385 42.32,37.8072308 C42.32,42.8810769 41.06,47.6610769 38.8415385,51.8533846 L28.1123077,51.8533846 C31.4246154,48.1149231 33.4369231,43.1949231 33.4369231,37.8072308 C33.4369231,28.0595385 26.8553846,19.8487692 17.8923077,17.378 L17.8923077,51.8533846 L9.13384615,51.8533846 L9.13384615,7.57030769 Z M57.8923077,51.8610769 L66.68,51.8610769 L66.68,7.56261538 L57.8923077,7.56261538 L57.8923077,51.8610769 Z M53.2969231,9.02723077 L53.2969231,19.2426154 C53.2492308,19.2656923 53.2,19.2903077 53.1461538,19.318 C49.8215385,21.1841538 47.0507692,23.918 45.1430769,27.218 C44.2230769,23.898 42.7507692,20.8103077 40.8261538,18.058 C44.1153846,14.2841538 48.7630769,11.1795385 53.2969231,9.02723077 L53.2969231,9.02723077 Z M0,58.9318462 L77.2292308,58.9318462 L77.2292308,-0.000461538462 L0,-0.000461538462 L0,58.9318462 Z" id="Fill-4" fill="#02669A"></path>
                <path d="M103.006836,52 L98.5390625,52 L98.5390625,42.4345703 C98.5390625,41.2529238 98.3413106,40.3667022 97.9458008,39.7758789 C97.550291,39.1850556 96.9277386,38.8896484 96.078125,38.8896484 C94.9355412,38.8896484 94.1054713,39.3095661 93.5878906,40.1494141 C93.0703099,40.989262 92.8115234,42.3710841 92.8115234,44.2949219 L92.8115234,52 L88.34375,52 L88.34375,35.6230469 L91.7568359,35.6230469 L92.3574219,37.7177734 L92.6064453,37.7177734 C93.0459006,36.9658166 93.6806599,36.3774435 94.5107422,35.9526367 C95.3408245,35.5278299 96.2929634,35.3154297 97.3671875,35.3154297 C99.8183716,35.3154297 101.478511,36.1162029 102.347656,37.7177734 L102.743164,37.7177734 C103.182619,36.9560509 103.829586,36.3652365 104.684082,35.9453125 C105.538578,35.5253885 106.502924,35.3154297 107.577148,35.3154297 C109.432626,35.3154297 110.836421,35.7914991 111.788574,36.7436523 C112.740727,37.6958055 113.216797,39.2216692 113.216797,41.3212891 L113.216797,52 L108.734375,52 L108.734375,42.4345703 C108.734375,41.2529238 108.536623,40.3667022 108.141113,39.7758789 C107.745603,39.1850556 107.123051,38.8896484 106.273438,38.8896484 C105.179682,38.8896484 104.361819,39.2802695 103.819824,40.0615234 C103.277829,40.8427773 103.006836,42.0829993 103.006836,43.7822266 L103.006836,52 Z M123.987305,52.2929688 C122.063467,52.2929688 120.552252,51.5459059 119.453613,50.0517578 C118.354975,48.5576097 117.805664,46.4873179 117.805664,43.8408203 C117.805664,41.15526 118.364741,39.0629958 119.48291,37.5639648 C120.60108,36.0649339 122.141592,35.3154297 124.104492,35.3154297 C126.165049,35.3154297 127.737299,36.1162029 128.821289,37.7177734 L128.967773,37.7177734 C128.743163,36.4970642 128.630859,35.4082079 128.630859,34.4511719 L128.630859,29.2070312 L133.113281,29.2070312 L133.113281,52 L129.685547,52 L128.821289,49.8759766 L128.630859,49.8759766 C127.615229,51.4873127 126.067393,52.2929688 123.987305,52.2929688 Z M125.554688,48.7333984 C126.697271,48.7333984 127.534665,48.4013705 128.066895,47.7373047 C128.599124,47.0732389 128.889648,45.9453205 128.938477,44.3535156 L128.938477,43.8701172 C128.938477,42.1122959 128.667483,40.8525429 128.125488,40.0908203 C127.583493,39.3290978 126.702155,38.9482422 125.481445,38.9482422 C124.485347,38.9482422 123.711429,39.3706012 123.159668,40.215332 C122.607907,41.0600628 122.332031,42.2880779 122.332031,43.8994141 C122.332031,45.5107502 122.610349,46.7192343 123.166992,47.5249023 C123.723636,48.3305704 124.519526,48.7333984 125.554688,48.7333984 Z M138.81543,50.8574219 C138.81543,49.9003858 139.206051,49.421875 139.987305,49.421875 C140.78809,49.421875 141.188477,49.9003858 141.188477,50.8574219 C141.188477,51.8144579 140.78809,52.2929688 139.987305,52.2929688 C139.206051,52.2929688 138.81543,51.8144579 138.81543,50.8574219 Z M148.692383,52 L147.242188,52 L147.242188,36.0771484 L148.692383,36.0771484 L148.692383,52 Z M147.037109,31.6533203 C147.037109,30.7158156 147.344723,30.2470703 147.959961,30.2470703 C148.262697,30.2470703 148.499511,30.3691394 148.67041,30.6132812 C148.841309,30.8574231 148.926758,31.2040993 148.926758,31.6533203 C148.926758,32.0927756 148.841309,32.4394519 148.67041,32.6933594 C148.499511,32.9472669 148.262697,33.0742188 147.959961,33.0742188 C147.344723,33.0742188 147.037109,32.6005907 147.037109,31.6533203 Z M166.12793,52 L166.12793,41.6728516 C166.12793,40.0712811 165.791019,38.9067419 165.117188,38.1791992 C164.443356,37.4516565 163.398445,37.0878906 161.982422,37.0878906 C160.078115,37.0878906 158.684086,37.5688428 157.800293,38.5307617 C156.916499,39.4926806 156.474609,41.0527236 156.474609,43.2109375 L156.474609,52 L155.024414,52 L155.024414,36.0771484 L156.254883,36.0771484 L156.533203,38.2597656 L156.621094,38.2597656 C157.656255,36.5996011 159.497057,35.7695312 162.143555,35.7695312 C165.756854,35.7695312 167.563477,37.7079884 167.563477,41.5849609 L167.563477,52 L166.12793,52 Z M179.549805,35.7695312 C180.702154,35.7695312 181.698238,35.9794901 182.538086,36.3994141 C183.377934,36.819338 184.129879,37.5371043 184.793945,38.5527344 L184.881836,38.5527344 C184.823242,37.3222595 184.793945,36.1162168 184.793945,34.9345703 L184.793945,29.2070312 L186.229492,29.2070312 L186.229492,52 L185.277344,52 L184.911133,49.5683594 L184.793945,49.5683594 C183.583002,51.3847747 181.844738,52.2929688 179.579102,52.2929688 C177.381825,52.2929688 175.702154,51.6093818 174.540039,50.2421875 C173.377924,48.8749932 172.796875,46.8828256 172.796875,44.265625 C172.796875,41.511705 173.373041,39.4072338 174.525391,37.9521484 C175.67774,36.497063 177.352528,35.7695312 179.549805,35.7695312 Z M179.549805,37.0878906 C177.811515,37.0878906 176.505375,37.6982361 175.631348,38.9189453 C174.75732,40.1396545 174.320312,41.9120978 174.320312,44.2363281 C174.320312,48.7480694 176.073225,51.0039062 179.579102,51.0039062 C181.375986,51.0039062 182.694332,50.4814505 183.53418,49.4365234 C184.374028,48.3915963 184.793945,46.6679808 184.793945,44.265625 L184.793945,44.0166016 C184.793945,41.5556518 184.381352,39.7856499 183.556152,38.706543 C182.730953,37.627436 181.395517,37.0878906 179.549805,37.0878906 Z M193.835938,36.0771484 L193.835938,46.3896484 C193.835938,47.9912189 194.172848,49.1557581 194.84668,49.8833008 C195.520511,50.6108435 196.565423,50.9746094 197.981445,50.9746094 C199.875986,50.9746094 201.270015,50.4960985 202.163574,49.5390625 C203.057133,48.5820265 203.503906,47.0244249 203.503906,44.8662109 L203.503906,36.0771484 L204.939453,36.0771484 L204.939453,52 L203.708984,52 L203.445312,49.8027344 L203.357422,49.8027344 C202.32226,51.4628989 200.481459,52.2929688 197.834961,52.2929688 C194.211896,52.2929688 192.400391,50.3545116 192.400391,46.4775391 L192.400391,36.0771484 L193.835938,36.0771484 Z M221.144531,47.8544922 C221.144531,49.2802806 220.602544,50.376461 219.518555,51.1430664 C218.434565,51.9096718 216.896494,52.2929688 214.904297,52.2929688 C212.77538,52.2929688 211.085944,51.9658236 209.835938,51.3115234 L209.835938,49.7441406 C211.437508,50.5449259 213.126944,50.9453125 214.904297,50.9453125 C216.47657,50.9453125 217.670406,50.6840846 218.48584,50.1616211 C219.301274,49.6391575 219.708984,48.9433637 219.708984,48.0742188 C219.708984,47.2734335 219.384281,46.5996121 218.734863,46.0527344 C218.085446,45.5058566 217.018562,44.9687526 215.53418,44.4414062 C213.942375,43.8652315 212.824222,43.369631 212.179688,42.9545898 C211.535153,42.5395487 211.049318,42.0708034 210.722168,41.5483398 C210.395018,41.0258763 210.231445,40.3886756 210.231445,39.6367188 C210.231445,38.4453065 210.731929,37.5029332 211.73291,36.8095703 C212.733892,36.1162075 214.132804,35.7695312 215.929688,35.7695312 C217.648446,35.7695312 219.279289,36.0917937 220.822266,36.7363281 L220.280273,38.0546875 C218.717766,37.410153 217.267585,37.0878906 215.929688,37.0878906 C214.630853,37.0878906 213.60059,37.3027322 212.838867,37.7324219 C212.077145,38.1621115 211.696289,38.7578087 211.696289,39.5195312 C211.696289,40.3496135 211.991696,41.0136694 212.58252,41.5117188 C213.173343,42.0097681 214.328116,42.5664032 216.046875,43.1816406 C217.482429,43.6992213 218.52734,44.1655253 219.181641,44.5805664 C219.835941,44.9956075 220.326659,45.4667942 220.653809,45.9941406 C220.980959,46.521487 221.144531,47.141598 221.144531,47.8544922 Z M230.450195,51.0039062 C231.368169,51.0039062 232.168942,50.925782 232.852539,50.7695312 L232.852539,51.9414062 C232.149411,52.1757824 231.338872,52.2929688 230.420898,52.2929688 C229.014641,52.2929688 227.977054,51.9169959 227.308105,51.1650391 C226.639157,50.4130822 226.304688,49.2314534 226.304688,47.6201172 L226.304688,37.3369141 L223.946289,37.3369141 L223.946289,36.4873047 L226.304688,35.828125 L227.037109,32.2246094 L227.78418,32.2246094 L227.78418,36.0771484 L232.457031,36.0771484 L232.457031,37.3369141 L227.78418,37.3369141 L227.78418,47.4150391 C227.78418,48.6357483 227.999021,49.5390596 228.428711,50.125 C228.858401,50.7109404 229.532222,51.0039062 230.450195,51.0039062 Z M243.564453,35.7695312 C244.238285,35.7695312 244.960934,35.8378899 245.732422,35.9746094 L245.454102,37.3662109 C244.790036,37.2001945 244.101566,37.1171875 243.388672,37.1171875 C242.031243,37.1171875 240.917973,37.6933536 240.048828,38.8457031 C239.179683,39.9980526 238.745117,41.4531162 238.745117,43.2109375 L238.745117,52 L237.294922,52 L237.294922,36.0771484 L238.525391,36.0771484 L238.671875,38.9482422 L238.774414,38.9482422 C239.428714,37.7763613 240.126949,36.9536156 240.869141,36.4799805 C241.611332,36.0063453 242.50976,35.7695312 243.564453,35.7695312 Z M251.419922,52 L249.969727,52 L249.969727,36.0771484 L251.419922,36.0771484 L251.419922,52 Z M249.764648,31.6533203 C249.764648,30.7158156 250.072263,30.2470703 250.6875,30.2470703 C250.990236,30.2470703 251.22705,30.3691394 251.397949,30.6132812 C251.568849,30.8574231 251.654297,31.2040993 251.654297,31.6533203 C251.654297,32.0927756 251.568849,32.4394519 251.397949,32.6933594 C251.22705,32.9472669 250.990236,33.0742188 250.6875,33.0742188 C250.072263,33.0742188 249.764648,32.6005907 249.764648,31.6533203 Z M264.182617,52.2929688 C261.868152,52.2929688 260.063971,51.5800853 258.77002,50.1542969 C257.476068,48.7285085 256.829102,46.7314582 256.829102,44.1630859 C256.829102,41.6240107 257.454095,39.5903397 258.704102,38.0620117 C259.954108,36.5336838 261.638661,35.7695312 263.757812,35.7695312 C265.632822,35.7695312 267.112299,36.4238216 268.196289,37.7324219 C269.280279,39.0410222 269.822266,40.8183481 269.822266,43.0644531 L269.822266,44.2363281 L258.352539,44.2363281 C258.37207,46.4238391 258.882319,48.0937442 259.883301,49.2460938 C260.884282,50.3984433 262.317373,50.9746094 264.182617,50.9746094 C265.090825,50.9746094 265.889157,50.9111334 266.577637,50.7841797 C267.266117,50.6572259 268.13769,50.3837912 269.192383,49.9638672 L269.192383,51.2822266 C268.293941,51.6728535 267.463871,51.9389641 266.702148,52.0805664 C265.940426,52.2221687 265.100591,52.2929688 264.182617,52.2929688 Z M263.757812,37.0585938 C262.224602,37.0585938 260.994145,37.5639598 260.066406,38.574707 C259.138667,39.5854543 258.59668,41.0429592 258.44043,42.9472656 L268.28418,42.9472656 C268.28418,41.1015533 267.883793,39.6586966 267.083008,38.6186523 C266.282223,37.5786081 265.173835,37.0585938 263.757812,37.0585938 Z M285.089844,47.8544922 C285.089844,49.2802806 284.547857,50.376461 283.463867,51.1430664 C282.379877,51.9096718 280.841807,52.2929688 278.849609,52.2929688 C276.720692,52.2929688 275.031256,51.9658236 273.78125,51.3115234 L273.78125,49.7441406 C275.382821,50.5449259 277.072257,50.9453125 278.849609,50.9453125 C280.421883,50.9453125 281.615719,50.6840846 282.431152,50.1616211 C283.246586,49.6391575 283.654297,48.9433637 283.654297,48.0742188 C283.654297,47.2734335 283.329593,46.5996121 282.680176,46.0527344 C282.030758,45.5058566 280.963875,44.9687526 279.479492,44.4414062 C277.887687,43.8652315 276.769534,43.369631 276.125,42.9545898 C275.480466,42.5395487 274.994631,42.0708034 274.66748,41.5483398 C274.34033,41.0258763 274.176758,40.3886756 274.176758,39.6367188 C274.176758,38.4453065 274.677241,37.5029332 275.678223,36.8095703 C276.679204,36.1162075 278.078116,35.7695312 279.875,35.7695312 C281.593759,35.7695312 283.224602,36.0917937 284.767578,36.7363281 L284.225586,38.0546875 C282.663078,37.410153 281.212897,37.0878906 279.875,37.0878906 C278.576165,37.0878906 277.545902,37.3027322 276.78418,37.7324219 C276.022457,38.1621115 275.641602,38.7578087 275.641602,39.5195312 C275.641602,40.3496135 275.937009,41.0136694 276.527832,41.5117188 C277.118655,42.0097681 278.273429,42.5664032 279.992188,43.1816406 C281.427742,43.6992213 282.472653,44.1655253 283.126953,44.5805664 C283.781253,44.9956075 284.271971,45.4667942 284.599121,45.9941406 C284.926271,46.521487 285.089844,47.141598 285.089844,47.8544922 Z" id="text" fill="#02669A"></path>
                <circle id="Oval" fill="#009CE1" cx="299" cy="21" r="14"></circle>
                <path d="M300.952,18.344 C301.656,17.976 302.072,17.336 302.072,16.392 C302.072,14.84 300.696,13.928 299.368,13.928 C296.568,13.928 295.88,16.216 295.88,18.44 L295.88,26.872 C295.88,27.384 295.784,27.912 295.624,28.28 L297.528,28.28 C297.72,27.912 297.8,27.416 297.8,26.776 L297.8,24.616 C298.28,25.048 298.744,25.224 299.352,25.224 C300.104,25.224 300.984,24.984 301.592,24.392 C302.376,23.608 302.792,22.312 302.792,21.032 C302.792,19.864 302.088,18.632 300.984,18.36 L300.952,18.344 Z M297.8,17.928 C297.8,16.68 298.12,15.448 299.256,15.448 C299.992,15.448 300.232,16.024 300.232,16.52 C300.232,17.272 299.928,17.736 299.096,17.736 L298.424,19 L298.424,19.256 C299.864,19.256 300.792,19.352 300.792,21.304 C300.792,22.824 299.928,23.704 299.272,23.704 C298.584,23.704 298.248,23.352 297.8,22.6 L297.8,17.928 Z" id="beta" fill="#FFFFFF"></path>
            </g>
        </g>
    </g>
</svg>