<?xml version="1.0" encoding="UTF-8"?>
<svg width="81px" height="62px" viewBox="0 0 81 62" version="1.1" xmlns="http://www.w3.org/2000/svg" xmlns:xlink="http://www.w3.org/1999/xlink">
    <!-- Generator: sketchtool 41.2 (35397) - http://www.bohemiancoding.com/sketch -->
    <title>B058C3E6-BF2E-44FA-ADB0-A952C11CDF3C</title>
    <desc>Created with sketchtool.</desc>
    <defs></defs>
    <g id="Symbols" stroke="none" stroke-width="1" fill="none" fill-rule="evenodd">
        <g id="footer" transform="translate(-210.000000, -59.000000)" fill="#939EA8">
            <path d="M210,120.809717 L291,120.809717 L291,59 L210,59 L210,120.809717 Z M265.899181,68.4684755 L265.899181,79.1826331 C265.84916,79.2068368 265.797526,79.232654 265.741051,79.2600849 C262.254109,81.2189685 259.348055,84.0862965 257.347218,87.5474213 C256.382298,84.06532 254.838104,80.8268691 252.819518,77.9401781 C256.269348,73.9820714 261.143967,70.725871 265.899181,68.4684755 L265.899181,68.4684755 Z M279.935696,66.9323492 L279.935696,113.393713 L270.718939,113.393713 L270.718939,66.9323492 L279.935696,66.9323492 L279.935696,66.9323492 Z M219.579812,66.9404171 C222.431005,66.9404171 225.266061,67.0759577 228.076914,67.5455089 C243.005737,70.0368732 254.386303,83.0181079 254.386303,98.6536784 C254.386303,103.973645 253.064782,108.987032 250.738003,113.385645 L239.48491,113.385645 C242.958943,109.463037 245.069503,104.304428 245.069503,98.6536784 C245.069503,88.4284348 238.166617,79.8183828 228.765912,77.2269766 L228.765912,113.385645 L219.579812,113.385645 L219.579812,66.9404171 L219.579812,66.9404171 Z" id="MDI_logo_footer"></path>
        </g>
    </g>
</svg>