<?xml version="1.0" encoding="UTF-8"?>
<svg width="28px" height="13px" viewBox="0 0 28 13" version="1.1" xmlns="http://www.w3.org/2000/svg" xmlns:xlink="http://www.w3.org/1999/xlink">
    <!-- Generator: sketchtool 41.2 (35397) - http://www.bohemiancoding.com/sketch -->
    <title>80797E0F-632A-4C9C-A724-41CF7B083EA3</title>
    <desc>Created with sketchtool.</desc>
    <defs></defs>
    <g id="Symbols" stroke="none" stroke-width="1" fill="none" fill-rule="evenodd">
        <g id="footer" transform="translate(-1177.000000, -141.000000)" fill="#B4BDC6">
            <g id="websee_logo_2" transform="translate(1177.000000, 141.000000)">
                <path d="M7.51219512,5.73144072 L6.12598333,1.29630944 C5.90227743,0.579879347 5.3315406,2.66453526e-15 4.8511465,2.66453526e-15 L3.69342067,2.66453526e-15 L1.71257184,2.66453526e-15 L0.553889999,2.66453526e-15 C0.0739739237,2.66453526e-15 -0.133479839,0.579879347 0.0897480578,1.29630944 L3.34352169,11.7064585 C3.56149155,12.4030518 4.10689418,12.9700142 4.5782062,13 C4.9921577,12.8662172 5.44052553,12.3536906 5.63411714,11.7396735 C5.63507318,11.7364443 7.51219512,5.73144072 7.51219512,5.73144072 Z" id="Shape"></path>
                <path d="M16.3902439,0.0336596438 C16.336563,0.0119883663 16.2782545,-2.66453526e-15 16.2139301,-2.66453526e-15 L15.2319407,-2.66453526e-15 L14.9043025,-2.66453526e-15 L13.9232387,-2.66453526e-15 L11.8662441,-2.66453526e-15 L10.8842548,-2.66453526e-15 C10.419175,-2.66453526e-15 9.86663251,0.580974676 9.65005806,1.29612683 L6.50047309,11.7011066 C6.49954757,11.7043343 6.49908481,11.7071008 6.49769652,11.7103284 C6.31027631,12.3240406 5.87620185,12.8358516 5.46341463,12.9668014 C5.51709549,12.9880116 5.57586677,13 5.640654,13 L10.6487069,12.9976945 L10.634824,13 C10.6440793,13 10.6524091,12.9976945 10.6625899,12.9976945 L10.9698665,12.9972335 C11.435409,12.9972335 11.987026,12.417181 12.2036005,11.7011066 L15.3531854,1.29612683 C15.5406057,0.678725969 15.9756056,0.164609491 16.3902439,0.0336596438 L16.3902439,0.0336596438 L16.3902439,0.0336596438 Z" id="Shape"></path>
                <path d="M27.4576892,8.8817842e-16 L26.3214246,8.8817842e-16 L24.3806377,8.8817842e-16 L23.244373,8.8817842e-16 C22.773936,8.8817842e-16 22.2144721,0.580974677 21.9951848,1.29658793 L18.8056781,11.7011066 C18.8042724,11.7047954 18.8033353,11.7089452 18.8023982,11.7126339 C18.6121617,12.3249627 18.1726499,12.8367738 17.7560976,12.9668015 C17.8104508,12.9880117 17.8690212,13 17.9350885,13 L19.0713532,13 L19.260184,13 L20.3959801,13 C20.3847346,13 20.3730205,12.9981556 20.361775,12.9972335 L20.3959801,12.9972335 L22.3377041,12.9972335 L23.4730317,12.9972335 C23.9434686,12.9972335 24.5029325,12.417181 24.7222199,11.7006455 L27.9117265,1.29612684 C28.1310139,0.580974677 27.9276577,8.8817842e-16 27.4576892,8.8817842e-16 L27.4576892,8.8817842e-16 L27.4576892,8.8817842e-16 Z" id="Shape"></path>
                <path d="M17.8732261,11.7054634 L19.804878,5.57771208 L18.4414444,1.254256 C18.2526836,0.654213263 17.8185338,0.150010685 17.3974521,-1.77635684e-15 C16.9763703,0.150010685 16.5422206,0.650509296 16.3534597,1.25101503 L14.3414634,7.63109907 L15.6245527,11.7017594 C15.8447736,12.3999573 16.2281032,12.9685163 16.7053292,13 C16.6748371,12.9944441 16.8161657,12.9865731 16.7885776,12.9763872 C17.2203074,12.8458223 17.6733332,12.3318968 17.869354,11.7170383 C17.870322,11.7133343 17.8712901,11.7091673 17.8732261,11.7054634 L17.8732261,11.7054634 L17.8732261,11.7054634 Z" id="Shape"></path>
            </g>
        </g>
    </g>
</svg>